<svg xmlns="http://www.w3.org/2000/svg" viewBox="0 0 100 100" width="100" height="100">
  <!-- SafeMart - Hard hat and shield -->
  <circle cx="50" cy="50" r="45" fill="#EAF9F8" stroke="#4CBEC5" stroke-width="3"/>
  <path d="M33 52 Q33 34 50 34 Q67 34 67 52 L67 57 L33 57 Z" fill="#4CBEC5"/>
  <rect x="27" y="57" width="46" height="7" rx="3.5" fill="#0F3D41"/>
  <path d="M47 35 L53 35 L53 30 Q53 27 50 27 Q47 27 47 30 Z" fill="#0F3D41"/>
  <path d="M62 62 L74 67 L74 76 Q74 84 62 88 Q50 84 50 76 L50 71 L62 67 Z" fill="#2FB67C"/>
  <path d="M56 76 L61 81 L69 71" stroke="#EAF9F8" stroke-width="3" fill="none" stroke-linecap="round" stroke-linejoin="round"/>
</svg>
